<svg xmlns="http://www.w3.org/2000/svg" xmlns:xlink="http://www.w3.org/1999/xlink" aria-hidden="true" role="img" class="iconify iconify--logos" width="31.88" height="32" preserveAspectRatio="xMidYMid meet" viewBox="0 0 256 257"><defs><linearGradient id="IconifyId1813088fe1fbc01fb467" x1="-.828%" x2="57.636%" y1="7.652%" y2="78.411%"><stop offset="0%" stop-color="#41D1FF"></stop><stop offset="100%" stop-color="#BD34FE"></stop></linearGradient><linearGradient id="IconifyId1813088fe1fbc01fb468" x1="43.376%" x2="50.316%" y1="2.242%" y2="89.03%"><stop offset="0%" stop-color="#FFEA83"></stop><stop offset="8.333%" stop-color="#FFDD35"></stop><stop offset="100%" stop-color="#FFA800"></stop></linearGradient></defs><path fill="url(#IconifyId1813088fe1fbc01fb467)" d="M255.153 37.938L134.897 252.97a12.02 12.02 0 0 1-22.062-8.002l-1.24-42.47l-42.325-1.233a12.022 12.022 0 0 1-8.01-22.07l215.045-135.06a12.02 12.02 0 0 1 18.848 12.803Z"></path><path fill="url(#IconifyId1813088fe1fbc01fb468)" d="M180.62 2.783A12.022 12.022 0 0 0 168.59.16l-165.53 99.342a12.02 12.02 0 0 0 7.023 22.664l42.23 1.23l1.24 42.472a12.02 12.02 0 0 0 22.06 8.002L252.34 40.67a12.02 12.02 0 0 0-71.72-37.887Z"></path></svg>